<?xml version="1.0" encoding="utf-8"?>
<!-- Generator: Adobe Illustrator 18.0.0, SVG Export Plug-In . SVG Version: 6.00 Build 0)  -->
<!DOCTYPE svg PUBLIC "-//W3C//DTD SVG 1.1//EN" "http://www.w3.org/Graphics/SVG/1.1/DTD/svg11.dtd">
<svg version="1.1" id="Layer_1" xmlns:sketch="http://www.bohemiancoding.com/sketch/ns"
	 xmlns="http://www.w3.org/2000/svg" xmlns:xlink="http://www.w3.org/1999/xlink" x="0px" y="0px" viewBox="0 0 241 75"
	 enable-background="new 0 0 241 75" xml:space="preserve">
<g enable-background="new    ">
	<path fill="#FFFFFF" d="M21.1,22.3c0.2-0.9,1.1-1.6,2.7-2.2c1.6-0.6,3.2-1,5-1.1c1.7-0.1,3.1,0.1,4.4,0.6c1.2,0.5,1.5,1.5,1,3
		c-0.3,0.7-0.8,2-1.6,3.7c-0.8,1.7-1.7,3.7-2.8,6c-1.1,2.3-2.3,4.9-3.6,7.6c-1.4,2.7-2.8,5.5-4.2,8.3c-1.4,2.8-2.9,5.5-4.4,8.1
		c-1.5,2.6-2.9,4.9-4.1,7c-1.3,2.1-2.5,3.8-3.6,5.1c-1.1,1.3-2,2.1-2.8,2.2c-1.3,0.3-2.5,0-3.6-1c-1.1-1-1.9-2.2-2.4-3.5
		c-0.5-1.3-0.7-2.6-0.5-3.8c0.2-1.2,0.8-1.9,2-2c0.7,0,1.7-0.8,2.8-2.4c1.1-1.6,2.4-3.6,3.6-6c1.3-2.4,2.6-5.1,3.9-8.1
		c1.3-3,2.5-5.8,3.6-8.6c1.1-2.8,2.1-5.3,2.9-7.7C20.3,25.2,20.8,23.4,21.1,22.3z M50.6,4.5c3,1.9,5.2,4.4,6.8,7.4s2.4,6.3,2.5,9.9
		c0.2,3.6-0.1,7.4-1,11.4c-0.9,4-2.1,8-3.9,11.8c-1.7,3.9-3.7,7.6-6,11.1c-2.3,3.5-4.9,6.6-7.6,9.3c-2.7,2.7-5.6,4.8-8.5,6.4
		c-2.9,1.6-5.8,2.4-8.7,2.4c-2.7,0-4.7-0.5-6.1-1.4c-1.4-0.9-2.2-2-2.6-3s-0.4-2.1,0-2.9c0.4-0.8,1-1.1,1.9-0.9
		c3.1,0.7,6.3,0.1,9.4-1.6c3.1-1.7,6.1-4.2,8.8-7.3c2.7-3.2,5.1-6.8,7.1-10.9C44.7,42,46.1,38,47,34c0.9-4,1-7.8,0.5-11.4
		c-0.5-3.5-2-6.3-4.4-8.3c-2.2-1.8-4.8-2.5-7.8-2.2c-3,0.3-6,1.2-9,2.8s-5.8,3.3-8.3,5.5c-2.6,2.1-4.5,4.1-5.8,6
		c-0.9,1.3-1.8,1.7-2.6,1.2c-0.8-0.5-1.2-1.6-1.4-3.2c-0.2-1.6-0.1-3.5,0.4-5.6c0.5-2.2,1.6-4.2,3.1-6.2c2-2.5,4.6-4.7,7.8-6.5
		c3.2-1.8,6.6-3.2,10.2-4c3.6-0.8,7.3-1.1,10.9-0.7C44.4,1.6,47.7,2.7,50.6,4.5z"/>
	<path fill="#FFFFFF" d="M90.2,38.3c0.7,1.8,0.6,3.8-0.2,6s-2.2,4.2-4.1,6.2c-2,1.9-4.4,3.5-7.4,4.8c-3,1.3-6.2,1.9-9.8,1.8
		c0.5,1.3,1.4,2.4,2.8,3.1c1.4,0.7,3.1,1.1,5.1,1.1c1.9,0,4-0.4,6.4-1c2.3-0.7,4.5-1.8,6.8-3.4c1.1-0.7,1.8-0.9,2-0.6
		c0.2,0.3,0,1-0.6,1.9c-0.6,0.9-1.5,2-2.8,3.3c-1.3,1.3-2.8,2.4-4.6,3.5c-1.8,1.1-3.9,1.9-6.1,2.5c-2.2,0.6-4.6,0.8-7.1,0.5
		c-2.6-0.3-4.8-1.1-6.6-2.2c-1.8-1.2-3.2-2.7-4-4.5c-0.9-1.8-1.2-3.9-1.2-6.3c0.1-2.4,0.8-4.9,2-7.6c1.1-2.5,2.6-4.7,4.4-6.5
		c1.8-1.8,3.6-3.3,5.6-4.5c2-1.2,4-2,6.1-2.4c2.1-0.4,4.1-0.6,5.9-0.4c1.8,0.2,3.4,0.7,4.8,1.5C88.6,35.7,89.6,36.8,90.2,38.3z
		 M82.6,41.3c-0.5-0.5-1.4-0.7-2.6-0.4c-1.2,0.3-2.5,0.8-3.9,1.7c-1.4,0.9-2.7,2-3.9,3.4c-1.3,1.4-2.3,3-3,4.7
		c2.1-0.1,4.1-0.5,6-1.2c1.9-0.8,3.4-1.7,4.8-2.7c1.3-1,2.2-2,2.8-3C83.2,42.7,83.2,41.9,82.6,41.3z"/>
	<path fill="#FFFFFF" d="M121.6,38.3c0.7,1.8,0.6,3.8-0.2,6c-0.8,2.2-2.2,4.2-4.2,6.2c-2,1.9-4.4,3.5-7.4,4.8
		c-3,1.3-6.2,1.9-9.8,1.8c0.5,1.3,1.4,2.4,2.8,3.1c1.4,0.7,3.1,1.1,5.1,1.1c1.9,0,4-0.4,6.4-1c2.3-0.7,4.5-1.8,6.7-3.4
		c1.1-0.7,1.8-0.9,2-0.6c0.2,0.3,0,1-0.6,1.9c-0.6,0.9-1.5,2-2.8,3.3c-1.3,1.3-2.8,2.4-4.6,3.5c-1.8,1.1-3.9,1.9-6.1,2.5
		c-2.2,0.6-4.6,0.8-7.1,0.5c-2.6-0.3-4.8-1.1-6.6-2.2c-1.8-1.2-3.2-2.7-4-4.5c-0.9-1.8-1.2-3.9-1.2-6.3c0.1-2.4,0.8-4.9,2-7.6
		c1.1-2.5,2.6-4.7,4.4-6.5c1.8-1.8,3.6-3.3,5.6-4.5c2-1.2,4-2,6.1-2.4c2.1-0.4,4.1-0.6,5.9-0.4c1.8,0.2,3.4,0.7,4.8,1.5
		C120,35.7,121,36.8,121.6,38.3z M114,41.3c-0.5-0.5-1.4-0.7-2.6-0.4c-1.2,0.3-2.5,0.8-3.9,1.7c-1.4,0.9-2.7,2-3.9,3.4
		c-1.3,1.4-2.3,3-3,4.7c2.1-0.1,4.1-0.5,6-1.2c1.9-0.8,3.4-1.7,4.8-2.7c1.3-1,2.2-2,2.8-3C114.6,42.7,114.6,41.9,114,41.3z"/>
	<path fill="#FFFFFF" d="M151.9,36.1c1-1.9,2-3.7,2.9-5.5c1-1.8,1.9-3.5,2.7-5.1c0.8-1.6,1.6-3,2.2-4.3c0.6-1.3,1.1-2.3,1.3-3
		c0.3-0.7,0.9-1.2,2-1.5c1-0.3,2.1-0.4,3.2-0.4c1.1,0,2,0.2,2.8,0.5c0.8,0.3,1.1,0.8,0.9,1.4c-0.4,1.3-1.1,2.9-2,4.9s-1.9,4.2-3,6.5
		c-1.1,2.3-2.3,4.6-3.6,7c-1.2,2.4-2.4,4.7-3.4,6.8c-1.1,2.2-2,4.1-2.8,5.7c-0.8,1.6-1.4,2.9-1.8,3.7c-0.7,1.7-1.1,3.1-1,4
		c0.1,1,0.5,1.6,1.2,2c0.7,0.3,1.6,0.3,2.8,0c1.2-0.3,2.6-0.9,4.1-1.8c0.9-0.5,1.4-0.7,1.7-0.4c0.2,0.3,0.2,0.8-0.2,1.5
		c-0.4,0.7-1,1.6-1.9,2.7c-0.9,1-1.9,2-3.1,2.8c-1.2,0.9-2.6,1.6-4.2,2.2c-1.6,0.6-3.2,0.8-5,0.7c-3.5-0.3-5.6-1.7-6.2-4.2
		c-1.7,1.3-3.5,2.4-5.3,3.2c-1.8,0.8-3.5,1.3-5.1,1.5c-1.6,0.2-3.1,0.1-4.5-0.3c-1.4-0.4-2.5-1.2-3.5-2.3c-1.1-1.3-1.7-2.8-1.9-4.8
		c-0.2-1.9,0-3.9,0.6-6c0.6-2.1,1.5-4.3,2.8-6.6c1.3-2.3,2.9-4.4,4.8-6.4s4-3.6,6.1-4.9c2.1-1.3,4.1-2.1,6.1-2.6
		c2-0.5,3.8-0.5,5.4-0.2c1.7,0.4,3,1.2,4.1,2.5L151.9,36.1z M142.7,52.5c1.5-2.3,2.7-4.3,3.6-6.2c0.8-1.9,0.9-3.3,0.2-4.2
		c-0.3-0.5-0.9-0.8-1.7-0.8c-0.8-0.1-1.6,0-2.6,0.3c-1,0.3-2,0.9-3.2,1.7c-1.1,0.8-2.2,1.8-3.3,3c-1.8,2.1-3,4.2-3.5,6.1
		c-0.5,2-0.4,3.5,0.3,4.5c0.4,0.5,1,0.7,1.8,0.8c0.8,0.1,1.6-0.1,2.6-0.4c1-0.3,2-0.9,3-1.7C140.8,54.8,141.8,53.8,142.7,52.5z"/>
	<path fill="#FFFFFF" d="M181.2,32c0.6,0,1.1,0.3,1.5,1c0.4,0.6,0.7,1.3,0.9,2.1c0.1,0.8,0.1,1.6-0.2,2.2c-0.3,0.7-0.8,1.1-1.7,1.2
		c-1.8,0.4-3.5,1.4-5.2,3c-1.6,1.6-3,3.4-4,5.2c-1,1.9-1.7,3.7-1.8,5.4c-0.2,1.7,0.2,2.8,1.3,3.5c1.5,0.8,3.1,0.7,4.8-0.4
		c1.7-1,3.2-2.5,4.6-4.3c1.4-1.8,2.4-3.8,3.1-6c0.7-2.1,0.9-3.9,0.5-5.3c-0.2-0.7-0.1-1.3,0.3-2c0.4-0.7,0.9-1.2,1.7-1.6
		c0.7-0.4,1.5-0.7,2.3-0.8c0.9-0.1,1.6,0.1,2.2,0.7c0.6,0.5,1.4,1,2.4,1.5c1,0.4,2.1,0.8,3.3,1c1.2,0.3,2.4,0.4,3.7,0.3
		c1.3,0,2.4-0.2,3.4-0.6c1.1-0.5,1.7-0.4,1.6,0.3s-0.7,1.5-1.8,2.5c-1.1,0.9-2.7,1.8-4.7,2.5c-2,0.7-4.5,0.9-7.2,0.5
		c-0.1,2.4-0.7,5-1.8,7.7c-1,2.7-2.4,5.2-4.2,7.5c-1.8,2.3-3.9,4.2-6.3,5.7c-2.4,1.5-5.2,2.2-8.2,2.2s-5.3-0.6-6.9-1.7
		c-1.6-1.1-2.7-2.5-3.4-4.2s-1-3.5-0.9-5.5c0.1-2,0.3-3.8,0.8-5.3c0.5-1.9,1.5-4,2.8-6.1c1.3-2.1,2.8-4.1,4.7-6
		c1.8-1.8,3.8-3.3,5.9-4.5C176.8,32.6,179,32,181.2,32z"/>
	<path fill="#FFFFFF" d="M216.2,32c0.6,0,1.1,0.3,1.6,1c0.4,0.6,0.7,1.3,0.8,2.1c0.1,0.8,0.1,1.6-0.2,2.2c-0.3,0.7-0.8,1.1-1.7,1.2
		c-1.8,0.4-3.5,1.4-5.1,3c-1.6,1.6-3,3.4-4,5.2c-1,1.9-1.7,3.7-1.9,5.4c-0.2,1.7,0.2,2.8,1.3,3.5c1.5,0.8,3,0.7,4.8-0.4
		c1.7-1,3.2-2.5,4.6-4.3c1.4-1.8,2.4-3.8,3.2-6c0.7-2.1,0.9-3.9,0.5-5.3c-0.2-0.7-0.1-1.3,0.3-2c0.4-0.7,1-1.2,1.6-1.6
		c0.7-0.4,1.5-0.7,2.4-0.8c0.9-0.1,1.6,0.1,2.2,0.7c0.6,0.5,1.4,1,2.4,1.5c1,0.4,2.1,0.8,3.3,1c1.2,0.3,2.4,0.4,3.7,0.3
		c1.3,0,2.4-0.2,3.4-0.6c1.1-0.5,1.7-0.4,1.6,0.3c-0.1,0.7-0.6,1.5-1.8,2.5c-1.1,0.9-2.7,1.8-4.7,2.5c-2,0.7-4.4,0.9-7.2,0.5
		c-0.1,2.4-0.7,5-1.8,7.7c-1,2.7-2.4,5.2-4.2,7.5c-1.8,2.3-3.9,4.2-6.3,5.7s-5.1,2.2-8.1,2.2s-5.3-0.6-6.9-1.7
		c-1.6-1.1-2.7-2.5-3.4-4.2c-0.7-1.7-1-3.5-0.9-5.5c0.1-2,0.3-3.8,0.8-5.3c0.5-1.9,1.5-4,2.8-6.1c1.3-2.1,2.9-4.1,4.7-6
		c1.8-1.8,3.8-3.3,5.9-4.5C211.8,32.6,214,32,216.2,32z"/>
</g>
</svg>
